<?xml version="1.0" encoding="UTF-8" standalone="no"?>
<!DOCTYPE svg PUBLIC "-//W3C//DTD SVG 1.1//EN" "http://www.w3.org/Graphics/SVG/1.1/DTD/svg11.dtd">
<svg width="100%" height="100%" viewBox="0 0 80 80" version="1.1" xmlns="http://www.w3.org/2000/svg" xmlns:xlink="http://www.w3.org/1999/xlink" xml:space="preserve" xmlns:serif="http://www.serif.com/" style="fill-rule:evenodd;clip-rule:evenodd;stroke-linecap:square;stroke-linejoin:round;stroke-miterlimit:1.5;">
    <g transform="matrix(1,0,0,1,-6,-6)">
        <g id="Favicons" transform="matrix(0.625,0,0,1.11111,0,0)">
            <rect x="0" y="0" width="1600" height="900" style="fill:none;"/>
            <g transform="matrix(1.54118,0,0,0.898561,-13.0647,-277.598)">
                <g id="Logo">
                    <ellipse cx="56.197" cy="354.977" rx="39.439" ry="38.05" style="fill:none;"/>
                    <clipPath id="_clip1">
                        <ellipse cx="56.197" cy="354.977" rx="39.439" ry="38.05"/>
                    </clipPath>
                    <g clip-path="url(#_clip1)">
                        <g transform="matrix(0.192003,0,0,0.329315,-33.5974,283.843)">
                            <g transform="matrix(1.6,0,0,0.9,259.674,88.1895)">
                                <rect x="0" y="0" width="260" height="260" style="fill:rgb(251,225,3);"/>
                            </g>
                            <g transform="matrix(1.6,0,0,0.9,259.674,330.298)">
                                <path d="M0,-132.389L0,0L260,0L260,-132.389C220.67,-127.654 176.574,-125 130,-125C83.426,-125 39.33,-127.654 0,-132.389" style="fill:rgb(237,168,5);fill-rule:nonzero;"/>
                            </g>
                            <g transform="matrix(1.6,0,0,0.9,467.674,142.621)">
                                <path d="M0,184.085C64.852,149.617 105.447,103.405 106.979,90.639C108.511,77.872 94.979,36.511 92.17,33.447C89.362,30.383 26.298,0 26.298,0L30.128,9.958C30.128,9.958 14.809,0 0,0C-14.808,0 -30.127,9.958 -30.127,9.958L-26.298,0C-26.298,0 -89.361,30.383 -92.17,33.447C-94.979,36.511 -108.51,77.872 -106.979,90.639C-105.446,103.405 -64.851,149.617 0,184.085" style="fill:rgb(19,18,17);fill-rule:nonzero;"/>
                            </g>
                            <g transform="matrix(1.6,0,0,0.9,467.674,270.842)">
                                <path d="M0,-27.062C-28.416,-18.005 -71.272,-21.801 -82.468,-56.169C-82.468,-56.169 -88.89,-54.795 -96.877,-53.096C-96.778,-52.56 -96.663,-52.043 -96.51,-51.574C-92.936,-40.595 -54.894,2.043 0,29.107C30.298,8.426 29.244,-22.219 29.244,-22.219C13.177,-22.299 0,-27.062 0,-27.062" style="fill:rgb(251,225,3);fill-rule:nonzero;"/>
                            </g>
                            <g transform="matrix(1.6,0,0,0.9,362.444,243.215)">
                                <path d="M0,-34.281C0,-34.281 14.032,-13.232 36.525,-7.454C36.525,-7.454 22.753,0 9.088,-10.408C-4.532,-20.783 0,-34.281 0,-34.281" style="fill:white;fill-rule:nonzero;"/>
                            </g>
                            <g transform="matrix(1.6,0,0,0.9,572.905,243.215)">
                                <path d="M0,-34.281C0,-34.281 -14.033,-13.232 -36.525,-7.454C-36.525,-7.454 -22.753,0 -9.088,-10.408C4.531,-20.783 0,-34.281 0,-34.281" style="fill:rgb(210,225,241);fill-rule:nonzero;"/>
                            </g>
                            <g transform="matrix(1.6,0,0,0.9,467.674,270.842)">
                                <path d="M0,-27.062C-25.883,-18.81 -72.041,-24.163 -82.468,-56.169C-82.468,-56.169 -88.89,-54.795 -96.877,-53.096L-84.596,-51.489C-69.426,-10.959 -13.674,-19.15 0,-22.062C19.805,-22.089 0,29.107 0,29.107C30.298,8.426 29.244,-22.219 29.244,-22.219C13.177,-22.299 0,-27.062 0,-27.062" style="fill:rgb(237,168,5);fill-rule:nonzero;"/>
                            </g>
                            <g transform="matrix(1.6,0,0,0.9,584.853,221.544)">
                                <path d="M0,-53.919C0.001,-53.919 0.001,-53.92 0.001,-53.92C-8.536,-58.343 -20.294,-63.462 -30.599,-67.522L-30.599,-67.521L-30.599,-67.522C-33.407,-25.663 -60.323,-5.238 -60.343,-5.224C-43.743,-34.384 -45.411,-53.827 -47.45,-67.266C-53.554,-71.045 -65.106,-78.152 -73.237,-78.5C-81.869,-77.858 -91.915,-71.636 -99.024,-67.266C-101.091,-54.337 -102.656,-33.975 -86.132,-5.224C-86.151,-5.238 -113.067,-25.663 -115.876,-67.522L-115.876,-67.521L-115.876,-67.522C-125.525,-63.676 -136.045,-59.27 -146.476,-53.92C-146.476,-53.92 -146.476,-53.919 -146.475,-53.919C-148.978,-52.619 -151.317,-51.322 -153.335,-50.075C-130.302,-15.047 -86.159,24.581 -73.237,20.819C-59.778,20.819 -16.173,-15.047 6.86,-50.075C4.843,-51.322 2.503,-52.619 0,-53.919" style="fill:rgb(251,225,3);fill-rule:nonzero;"/>
                            </g>
                            <g transform="matrix(1.6,0,0,0.9,447.044,157.979)">
                                <path d="M0,65.405C-20.042,32.213 -12.894,3.362 -12.894,3.362C-12.894,3.362 -10.643,1.884 -7.36,0C-7.36,0 -15.519,28.612 0,65.405" style="fill:rgb(237,168,5);fill-rule:nonzero;"/>
                            </g>
                            <g transform="matrix(1.6,0,0,0.9,584.853,240.281)">
                                <path d="M0,-74.738C-5.122,-65.409 -45.436,-8.093 -73.237,0C-59.779,0 -16.173,-35.866 6.86,-70.894C4.843,-72.141 2.503,-73.438 0,-74.738" style="fill:rgb(237,168,5);fill-rule:nonzero;"/>
                            </g>
                            <g transform="matrix(1.6,0,0,0.9,488.305,160.775)">
                                <path d="M0,62.297C0.02,62.282 26.937,41.858 29.744,-0.001L42.373,5.209L33.371,13.515C31.585,22.914 23.198,46.108 0,62.298L0,62.297Z" style="fill:rgb(237,168,5);fill-rule:nonzero;"/>
                            </g>
                            <g transform="matrix(1.6,0,0,0.9,447.042,160.775)">
                                <path d="M0,62.297C-0.02,62.282 -26.937,41.858 -29.744,-0.001L-42.373,5.209L-33.371,13.515C-31.585,22.914 -23.198,46.108 0,62.298L0,62.297Z" style="fill:rgb(237,168,5);fill-rule:nonzero;"/>
                            </g>
                            <g transform="matrix(1.6,0,0,0.9,565.741,153.303)">
                                <path d="M0,39.451C17.859,25.176 22.672,0 22.672,0C22.672,0 -3.347,7.227 -15.026,21.817L0,39.451Z" style="fill:rgb(19,18,17);fill-rule:nonzero;"/>
                            </g>
                            <g transform="matrix(1.6,0,0,0.9,565.741,164.648)">
                                <path d="M0,26.845C6.117,16.561 10.496,7.961 10.496,0.452C2.021,0 -9.751,5.328 -15.026,9.211C-17.679,18.379 -13.242,25.269 0,26.845" style="fill:rgb(251,225,3);fill-rule:nonzero;"/>
                            </g>
                            <g transform="matrix(1.6,0,0,0.9,545.841,169.411)">
                                <path d="M0,16.713C2.568,19.168 6.665,20.866 12.438,21.553C18.555,11.269 22.934,2.669 22.934,-4.84C18.291,4.006 5.182,14.072 0,16.713" style="fill:rgb(237,168,5);fill-rule:nonzero;"/>
                            </g>
                            <g transform="matrix(1.6,0,0,0.9,369.606,153.303)">
                                <path d="M0,39.451C-17.859,25.176 -22.672,0 -22.672,0C-22.672,0 3.347,7.227 15.026,21.817L0,39.451Z" style="fill:rgb(19,18,17);fill-rule:nonzero;"/>
                            </g>
                            <g transform="matrix(1.6,0,0,0.9,369.606,164.648)">
                                <path d="M0,26.845C-6.117,16.561 -10.496,7.961 -10.496,0.452C-2.021,0 9.751,5.328 15.026,9.211C17.679,18.379 13.242,25.269 0,26.845" style="fill:rgb(251,225,3);fill-rule:nonzero;"/>
                            </g>
                            <g transform="matrix(1.6,0,0,0.9,352.813,183.029)">
                                <path d="M0,-19.971C8.476,-20.423 20.247,-15.095 25.522,-11.212C26.849,-6.628 26.403,-2.614 23.97,0.452C20.675,-6.788 11.992,-15.2 0,-19.971" style="fill:rgb(237,168,5);fill-rule:nonzero;"/>
                            </g>
                        </g>
                    </g>
                    <ellipse cx="56.197" cy="354.977" rx="39.439" ry="38.05" style="fill:none;stroke:rgb(255,248,233);stroke-width:2.72px;"/>
                </g>
            </g>
        </g>
    </g>
</svg>
